<mxfile host="www.draw.io" modified="2019-11-29T13:04:34.625Z" agent="Mozilla/5.0 (Windows NT 10.0; Win64; x64) AppleWebKit/537.36 (KHTML, like Gecko) Chrome/78.0.3904.108 Safari/537.36" etag="qkk2HwaIuNhhqY2iC5g8" version="12.3.3" type="github" pages="1">
  <diagram name="Page-1" id="b5b7bab2-c9e2-2cf4-8b2a-24fd1a2a6d21">
    <mxGraphModel dx="1221" dy="1851" grid="1" gridSize="10" guides="1" tooltips="1" connect="1" arrows="1" fold="1" page="1" pageScale="1" pageWidth="1027" pageHeight="1169" background="#ffffff" math="0" shadow="0">
      <root>
        <mxCell id="0"/>
        <mxCell id="1" parent="0"/>
        <mxCell id="50sDM0IluNqHPnj_dnaF-17" value="" style="shape=folder;fontStyle=1;spacingTop=10;tabWidth=40;tabHeight=14;tabPosition=left;html=1;" parent="1" vertex="1">
          <mxGeometry x="517.5" y="-460" width="450" height="290" as="geometry"/>
        </mxCell>
        <mxCell id="50sDM0IluNqHPnj_dnaF-10" value="" style="shape=folder;fontStyle=1;spacingTop=10;tabWidth=40;tabHeight=14;tabPosition=left;html=1;" parent="1" vertex="1">
          <mxGeometry x="8" y="40" width="573" height="196" as="geometry"/>
        </mxCell>
        <mxCell id="50sDM0IluNqHPnj_dnaF-9" value="" style="shape=folder;fontStyle=1;spacingTop=10;tabWidth=40;tabHeight=14;tabPosition=left;html=1;" parent="1" vertex="1">
          <mxGeometry x="53" y="-1120" width="920" height="640" as="geometry"/>
        </mxCell>
        <mxCell id="A2BCTbo7lUN5HEoxAGUj-3" value="&lt;&lt;abstract&gt;&gt;&#xa;Car" style="swimlane;fontStyle=0;childLayout=stackLayout;horizontal=1;startSize=26;fillColor=none;horizontalStack=0;resizeParent=1;resizeParentMax=0;resizeLast=0;collapsible=1;marginBottom=0;" parent="1" vertex="1">
          <mxGeometry x="332.5" y="-875" width="140" height="104" as="geometry"/>
        </mxCell>
        <mxCell id="A2BCTbo7lUN5HEoxAGUj-4" value="+ field: type" style="text;strokeColor=none;fillColor=none;align=left;verticalAlign=top;spacingLeft=4;spacingRight=4;overflow=hidden;rotatable=0;points=[[0,0.5],[1,0.5]];portConstraint=eastwest;" parent="A2BCTbo7lUN5HEoxAGUj-3" vertex="1">
          <mxGeometry y="26" width="140" height="26" as="geometry"/>
        </mxCell>
        <mxCell id="A2BCTbo7lUN5HEoxAGUj-5" value="+ field: type" style="text;strokeColor=none;fillColor=none;align=left;verticalAlign=top;spacingLeft=4;spacingRight=4;overflow=hidden;rotatable=0;points=[[0,0.5],[1,0.5]];portConstraint=eastwest;" parent="A2BCTbo7lUN5HEoxAGUj-3" vertex="1">
          <mxGeometry y="52" width="140" height="26" as="geometry"/>
        </mxCell>
        <mxCell id="A2BCTbo7lUN5HEoxAGUj-6" value="+ field: type" style="text;strokeColor=none;fillColor=none;align=left;verticalAlign=top;spacingLeft=4;spacingRight=4;overflow=hidden;rotatable=0;points=[[0,0.5],[1,0.5]];portConstraint=eastwest;" parent="A2BCTbo7lUN5HEoxAGUj-3" vertex="1">
          <mxGeometry y="78" width="140" height="26" as="geometry"/>
        </mxCell>
        <mxCell id="A2BCTbo7lUN5HEoxAGUj-7" value="«interface»&lt;br&gt;&lt;b&gt;Transportable&lt;/b&gt;" style="html=1;" parent="1" vertex="1">
          <mxGeometry x="347.5" y="-979" width="110" height="50" as="geometry"/>
        </mxCell>
        <mxCell id="A2BCTbo7lUN5HEoxAGUj-8" value="«interface»&lt;br&gt;&lt;b&gt;ITurbo&lt;/b&gt;" style="html=1;" parent="1" vertex="1">
          <mxGeometry x="225.5" y="-567" width="110" height="50" as="geometry"/>
        </mxCell>
        <mxCell id="A2BCTbo7lUN5HEoxAGUj-9" value="«interface»&lt;br&gt;&lt;b&gt;Flatbed&lt;/b&gt;" style="html=1;" parent="1" vertex="1">
          <mxGeometry x="705.5" y="-574" width="110" height="50" as="geometry"/>
        </mxCell>
        <mxCell id="A2BCTbo7lUN5HEoxAGUj-10" value="«interface»&lt;br&gt;&lt;b&gt;Engine&lt;/b&gt;" style="html=1;" parent="1" vertex="1">
          <mxGeometry x="695.5" y="-1100" width="110" height="50" as="geometry"/>
        </mxCell>
        <mxCell id="A2BCTbo7lUN5HEoxAGUj-11" value="«interface»&lt;br&gt;&lt;b&gt;Movable&lt;/b&gt;" style="html=1;" parent="1" vertex="1">
          <mxGeometry x="487.5" y="-1100" width="110" height="50" as="geometry"/>
        </mxCell>
        <mxCell id="A2BCTbo7lUN5HEoxAGUj-12" value="" style="endArrow=block;dashed=1;endFill=0;endSize=12;html=1;entryX=0.5;entryY=1;entryDx=0;entryDy=0;exitX=0.5;exitY=0;exitDx=0;exitDy=0;" parent="1" source="A2BCTbo7lUN5HEoxAGUj-3" target="A2BCTbo7lUN5HEoxAGUj-7" edge="1">
          <mxGeometry width="160" relative="1" as="geometry">
            <mxPoint x="292.5" y="-915" as="sourcePoint"/>
            <mxPoint x="292.5" y="-785" as="targetPoint"/>
          </mxGeometry>
        </mxCell>
        <mxCell id="A2BCTbo7lUN5HEoxAGUj-13" value="MotorVehicle" style="swimlane;fontStyle=1;align=center;verticalAlign=top;childLayout=stackLayout;horizontal=1;startSize=26;horizontalStack=0;resizeParent=1;resizeParentMax=0;resizeLast=0;collapsible=1;marginBottom=0;" parent="1" vertex="1">
          <mxGeometry x="552.5" y="-929" width="160" height="86" as="geometry"/>
        </mxCell>
        <mxCell id="A2BCTbo7lUN5HEoxAGUj-14" value="+ field: type" style="text;strokeColor=none;fillColor=none;align=left;verticalAlign=top;spacingLeft=4;spacingRight=4;overflow=hidden;rotatable=0;points=[[0,0.5],[1,0.5]];portConstraint=eastwest;" parent="A2BCTbo7lUN5HEoxAGUj-13" vertex="1">
          <mxGeometry y="26" width="160" height="26" as="geometry"/>
        </mxCell>
        <mxCell id="A2BCTbo7lUN5HEoxAGUj-15" value="" style="line;strokeWidth=1;fillColor=none;align=left;verticalAlign=middle;spacingTop=-1;spacingLeft=3;spacingRight=3;rotatable=0;labelPosition=right;points=[];portConstraint=eastwest;" parent="A2BCTbo7lUN5HEoxAGUj-13" vertex="1">
          <mxGeometry y="52" width="160" height="8" as="geometry"/>
        </mxCell>
        <mxCell id="A2BCTbo7lUN5HEoxAGUj-16" value="+ method(type): type" style="text;strokeColor=none;fillColor=none;align=left;verticalAlign=top;spacingLeft=4;spacingRight=4;overflow=hidden;rotatable=0;points=[[0,0.5],[1,0.5]];portConstraint=eastwest;" parent="A2BCTbo7lUN5HEoxAGUj-13" vertex="1">
          <mxGeometry y="60" width="160" height="26" as="geometry"/>
        </mxCell>
        <mxCell id="A2BCTbo7lUN5HEoxAGUj-18" value="Extends" style="endArrow=block;endSize=16;endFill=0;html=1;exitX=1;exitY=0.5;exitDx=0;exitDy=0;entryX=0;entryY=0.5;entryDx=0;entryDy=0;" parent="1" source="A2BCTbo7lUN5HEoxAGUj-5" target="A2BCTbo7lUN5HEoxAGUj-14" edge="1">
          <mxGeometry width="160" relative="1" as="geometry">
            <mxPoint x="292.5" y="-665" as="sourcePoint"/>
            <mxPoint x="452.5" y="-665" as="targetPoint"/>
          </mxGeometry>
        </mxCell>
        <mxCell id="A2BCTbo7lUN5HEoxAGUj-19" value="Saab95" style="swimlane;fontStyle=1;align=center;verticalAlign=top;childLayout=stackLayout;horizontal=1;startSize=26;horizontalStack=0;resizeParent=1;resizeParentMax=0;resizeLast=0;collapsible=1;marginBottom=0;" parent="1" vertex="1">
          <mxGeometry x="187.5" y="-700" width="160" height="86" as="geometry"/>
        </mxCell>
        <mxCell id="A2BCTbo7lUN5HEoxAGUj-20" value="+ field: type" style="text;strokeColor=none;fillColor=none;align=left;verticalAlign=top;spacingLeft=4;spacingRight=4;overflow=hidden;rotatable=0;points=[[0,0.5],[1,0.5]];portConstraint=eastwest;" parent="A2BCTbo7lUN5HEoxAGUj-19" vertex="1">
          <mxGeometry y="26" width="160" height="26" as="geometry"/>
        </mxCell>
        <mxCell id="A2BCTbo7lUN5HEoxAGUj-21" value="" style="line;strokeWidth=1;fillColor=none;align=left;verticalAlign=middle;spacingTop=-1;spacingLeft=3;spacingRight=3;rotatable=0;labelPosition=right;points=[];portConstraint=eastwest;" parent="A2BCTbo7lUN5HEoxAGUj-19" vertex="1">
          <mxGeometry y="52" width="160" height="8" as="geometry"/>
        </mxCell>
        <mxCell id="A2BCTbo7lUN5HEoxAGUj-22" value="+ method(type): type" style="text;strokeColor=none;fillColor=none;align=left;verticalAlign=top;spacingLeft=4;spacingRight=4;overflow=hidden;rotatable=0;points=[[0,0.5],[1,0.5]];portConstraint=eastwest;" parent="A2BCTbo7lUN5HEoxAGUj-19" vertex="1">
          <mxGeometry y="60" width="160" height="26" as="geometry"/>
        </mxCell>
        <mxCell id="A2BCTbo7lUN5HEoxAGUj-23" value="" style="endArrow=block;dashed=1;endFill=0;endSize=12;html=1;exitX=0.25;exitY=0;exitDx=0;exitDy=0;entryX=0.5;entryY=1;entryDx=0;entryDy=0;" parent="1" source="A2BCTbo7lUN5HEoxAGUj-13" target="A2BCTbo7lUN5HEoxAGUj-11" edge="1">
          <mxGeometry width="160" relative="1" as="geometry">
            <mxPoint x="132.5" y="-655" as="sourcePoint"/>
            <mxPoint x="292.5" y="-655" as="targetPoint"/>
          </mxGeometry>
        </mxCell>
        <mxCell id="A2BCTbo7lUN5HEoxAGUj-24" value="Extends" style="endArrow=block;endSize=16;endFill=0;html=1;exitX=0.5;exitY=0;exitDx=0;exitDy=0;" parent="1" source="A2BCTbo7lUN5HEoxAGUj-19" target="A2BCTbo7lUN5HEoxAGUj-6" edge="1">
          <mxGeometry width="160" relative="1" as="geometry">
            <mxPoint x="262.5" y="-805" as="sourcePoint"/>
            <mxPoint x="212.5" y="-685" as="targetPoint"/>
            <Array as="points">
              <mxPoint x="401.5" y="-705"/>
            </Array>
          </mxGeometry>
        </mxCell>
        <mxCell id="A2BCTbo7lUN5HEoxAGUj-27" value="Volvo240" style="swimlane;fontStyle=1;align=center;verticalAlign=top;childLayout=stackLayout;horizontal=1;startSize=26;horizontalStack=0;resizeParent=1;resizeParentMax=0;resizeLast=0;collapsible=1;marginBottom=0;" parent="1" vertex="1">
          <mxGeometry x="542.5" y="-745" width="160" height="86" as="geometry"/>
        </mxCell>
        <mxCell id="A2BCTbo7lUN5HEoxAGUj-28" value="+ field: type" style="text;strokeColor=none;fillColor=none;align=left;verticalAlign=top;spacingLeft=4;spacingRight=4;overflow=hidden;rotatable=0;points=[[0,0.5],[1,0.5]];portConstraint=eastwest;" parent="A2BCTbo7lUN5HEoxAGUj-27" vertex="1">
          <mxGeometry y="26" width="160" height="26" as="geometry"/>
        </mxCell>
        <mxCell id="A2BCTbo7lUN5HEoxAGUj-29" value="" style="line;strokeWidth=1;fillColor=none;align=left;verticalAlign=middle;spacingTop=-1;spacingLeft=3;spacingRight=3;rotatable=0;labelPosition=right;points=[];portConstraint=eastwest;" parent="A2BCTbo7lUN5HEoxAGUj-27" vertex="1">
          <mxGeometry y="52" width="160" height="8" as="geometry"/>
        </mxCell>
        <mxCell id="A2BCTbo7lUN5HEoxAGUj-30" value="+ method(type): type" style="text;strokeColor=none;fillColor=none;align=left;verticalAlign=top;spacingLeft=4;spacingRight=4;overflow=hidden;rotatable=0;points=[[0,0.5],[1,0.5]];portConstraint=eastwest;" parent="A2BCTbo7lUN5HEoxAGUj-27" vertex="1">
          <mxGeometry y="60" width="160" height="26" as="geometry"/>
        </mxCell>
        <mxCell id="A2BCTbo7lUN5HEoxAGUj-31" value="Scania" style="swimlane;fontStyle=1;align=center;verticalAlign=top;childLayout=stackLayout;horizontal=1;startSize=26;horizontalStack=0;resizeParent=1;resizeParentMax=0;resizeLast=0;collapsible=1;marginBottom=0;" parent="1" vertex="1">
          <mxGeometry x="420.5" y="-585" width="160" height="86" as="geometry"/>
        </mxCell>
        <mxCell id="A2BCTbo7lUN5HEoxAGUj-32" value="+ field: type" style="text;strokeColor=none;fillColor=none;align=left;verticalAlign=top;spacingLeft=4;spacingRight=4;overflow=hidden;rotatable=0;points=[[0,0.5],[1,0.5]];portConstraint=eastwest;" parent="A2BCTbo7lUN5HEoxAGUj-31" vertex="1">
          <mxGeometry y="26" width="160" height="26" as="geometry"/>
        </mxCell>
        <mxCell id="A2BCTbo7lUN5HEoxAGUj-33" value="" style="line;strokeWidth=1;fillColor=none;align=left;verticalAlign=middle;spacingTop=-1;spacingLeft=3;spacingRight=3;rotatable=0;labelPosition=right;points=[];portConstraint=eastwest;" parent="A2BCTbo7lUN5HEoxAGUj-31" vertex="1">
          <mxGeometry y="52" width="160" height="8" as="geometry"/>
        </mxCell>
        <mxCell id="A2BCTbo7lUN5HEoxAGUj-34" value="+ method(type): type" style="text;strokeColor=none;fillColor=none;align=left;verticalAlign=top;spacingLeft=4;spacingRight=4;overflow=hidden;rotatable=0;points=[[0,0.5],[1,0.5]];portConstraint=eastwest;" parent="A2BCTbo7lUN5HEoxAGUj-31" vertex="1">
          <mxGeometry y="60" width="160" height="26" as="geometry"/>
        </mxCell>
        <mxCell id="A2BCTbo7lUN5HEoxAGUj-37" value="Extends" style="endArrow=block;endSize=16;endFill=0;html=1;exitX=0;exitY=0.5;exitDx=0;exitDy=0;entryX=0.493;entryY=0.962;entryDx=0;entryDy=0;entryPerimeter=0;" parent="1" source="A2BCTbo7lUN5HEoxAGUj-28" target="A2BCTbo7lUN5HEoxAGUj-6" edge="1">
          <mxGeometry width="160" relative="1" as="geometry">
            <mxPoint x="132.5" y="-655" as="sourcePoint"/>
            <mxPoint x="292.5" y="-655" as="targetPoint"/>
            <Array as="points">
              <mxPoint x="401.5" y="-705"/>
            </Array>
          </mxGeometry>
        </mxCell>
        <mxCell id="A2BCTbo7lUN5HEoxAGUj-38" value="Extends" style="endArrow=block;endSize=16;endFill=0;html=1;exitX=0.25;exitY=0;exitDx=0;exitDy=0;" parent="1" source="A2BCTbo7lUN5HEoxAGUj-31" target="A2BCTbo7lUN5HEoxAGUj-6" edge="1">
          <mxGeometry width="160" relative="1" as="geometry">
            <mxPoint x="105.5" y="-475" as="sourcePoint"/>
            <mxPoint x="375.5" y="-645" as="targetPoint"/>
            <Array as="points">
              <mxPoint x="400.5" y="-585"/>
            </Array>
          </mxGeometry>
        </mxCell>
        <mxCell id="A2BCTbo7lUN5HEoxAGUj-39" value="" style="endArrow=block;dashed=1;endFill=0;endSize=12;html=1;exitX=0.583;exitY=1.108;exitDx=0;exitDy=0;entryX=0.5;entryY=0;entryDx=0;entryDy=0;exitPerimeter=0;" parent="1" source="A2BCTbo7lUN5HEoxAGUj-22" target="A2BCTbo7lUN5HEoxAGUj-8" edge="1">
          <mxGeometry width="160" relative="1" as="geometry">
            <mxPoint x="105.5" y="-475" as="sourcePoint"/>
            <mxPoint x="265.5" y="-475" as="targetPoint"/>
          </mxGeometry>
        </mxCell>
        <mxCell id="A2BCTbo7lUN5HEoxAGUj-40" value="" style="endArrow=block;dashed=1;endFill=0;endSize=12;html=1;entryX=1;entryY=0.5;entryDx=0;entryDy=0;" parent="1" edge="1" target="A2BCTbo7lUN5HEoxAGUj-8">
          <mxGeometry width="160" relative="1" as="geometry">
            <mxPoint x="419.5" y="-542" as="sourcePoint"/>
            <mxPoint x="420.5" y="-546" as="targetPoint"/>
          </mxGeometry>
        </mxCell>
        <mxCell id="A2BCTbo7lUN5HEoxAGUj-41" value="" style="endArrow=block;dashed=1;endFill=0;endSize=12;html=1;exitX=1;exitY=0.5;exitDx=0;exitDy=0;entryX=0;entryY=0.5;entryDx=0;entryDy=0;" parent="1" source="A2BCTbo7lUN5HEoxAGUj-32" target="A2BCTbo7lUN5HEoxAGUj-9" edge="1">
          <mxGeometry width="160" relative="1" as="geometry">
            <mxPoint x="190.5" y="-444" as="sourcePoint"/>
            <mxPoint x="660.5" y="-484" as="targetPoint"/>
          </mxGeometry>
        </mxCell>
        <mxCell id="A2BCTbo7lUN5HEoxAGUj-48" value="Size" style="swimlane;fontStyle=0;childLayout=stackLayout;horizontal=1;startSize=26;fillColor=none;horizontalStack=0;resizeParent=1;resizeParentMax=0;resizeLast=0;collapsible=1;marginBottom=0;" parent="1" vertex="1">
          <mxGeometry x="742.5" y="-855" width="140" height="104" as="geometry"/>
        </mxCell>
        <mxCell id="A2BCTbo7lUN5HEoxAGUj-49" value="+ field: type" style="text;strokeColor=none;fillColor=none;align=left;verticalAlign=top;spacingLeft=4;spacingRight=4;overflow=hidden;rotatable=0;points=[[0,0.5],[1,0.5]];portConstraint=eastwest;" parent="A2BCTbo7lUN5HEoxAGUj-48" vertex="1">
          <mxGeometry y="26" width="140" height="26" as="geometry"/>
        </mxCell>
        <mxCell id="A2BCTbo7lUN5HEoxAGUj-50" value="+ field: type" style="text;strokeColor=none;fillColor=none;align=left;verticalAlign=top;spacingLeft=4;spacingRight=4;overflow=hidden;rotatable=0;points=[[0,0.5],[1,0.5]];portConstraint=eastwest;" parent="A2BCTbo7lUN5HEoxAGUj-48" vertex="1">
          <mxGeometry y="52" width="140" height="26" as="geometry"/>
        </mxCell>
        <mxCell id="A2BCTbo7lUN5HEoxAGUj-51" value="+ field: type" style="text;strokeColor=none;fillColor=none;align=left;verticalAlign=top;spacingLeft=4;spacingRight=4;overflow=hidden;rotatable=0;points=[[0,0.5],[1,0.5]];portConstraint=eastwest;" parent="A2BCTbo7lUN5HEoxAGUj-48" vertex="1">
          <mxGeometry y="78" width="140" height="26" as="geometry"/>
        </mxCell>
        <mxCell id="A2BCTbo7lUN5HEoxAGUj-53" style="edgeStyle=orthogonalEdgeStyle;rounded=0;orthogonalLoop=1;jettySize=auto;html=1;exitX=1;exitY=0.5;exitDx=0;exitDy=0;entryX=0.5;entryY=0;entryDx=0;entryDy=0;endArrow=open;endFill=0;" parent="1" source="A2BCTbo7lUN5HEoxAGUj-14" target="A2BCTbo7lUN5HEoxAGUj-48" edge="1">
          <mxGeometry relative="1" as="geometry"/>
        </mxCell>
        <mxCell id="A2BCTbo7lUN5HEoxAGUj-54" value="&lt;b&gt;Timer&lt;/b&gt;" style="html=1;" parent="1" vertex="1">
          <mxGeometry x="777.5" y="-420" width="110" height="50" as="geometry"/>
        </mxCell>
        <mxCell id="A2BCTbo7lUN5HEoxAGUj-55" value="CarView" style="swimlane;fontStyle=1;align=center;verticalAlign=top;childLayout=stackLayout;horizontal=1;startSize=26;horizontalStack=0;resizeParent=1;resizeParentMax=0;resizeLast=0;collapsible=1;marginBottom=0;" parent="1" vertex="1">
          <mxGeometry x="157.5" y="100" width="160" height="86" as="geometry"/>
        </mxCell>
        <mxCell id="A2BCTbo7lUN5HEoxAGUj-56" value="+ DrawPanel" style="text;strokeColor=none;fillColor=none;align=left;verticalAlign=top;spacingLeft=4;spacingRight=4;overflow=hidden;rotatable=0;points=[[0,0.5],[1,0.5]];portConstraint=eastwest;" parent="A2BCTbo7lUN5HEoxAGUj-55" vertex="1">
          <mxGeometry y="26" width="160" height="26" as="geometry"/>
        </mxCell>
        <mxCell id="A2BCTbo7lUN5HEoxAGUj-57" value="" style="line;strokeWidth=1;fillColor=none;align=left;verticalAlign=middle;spacingTop=-1;spacingLeft=3;spacingRight=3;rotatable=0;labelPosition=right;points=[];portConstraint=eastwest;" parent="A2BCTbo7lUN5HEoxAGUj-55" vertex="1">
          <mxGeometry y="52" width="160" height="8" as="geometry"/>
        </mxCell>
        <mxCell id="A2BCTbo7lUN5HEoxAGUj-58" value="+ method(type): type" style="text;strokeColor=none;fillColor=none;align=left;verticalAlign=top;spacingLeft=4;spacingRight=4;overflow=hidden;rotatable=0;points=[[0,0.5],[1,0.5]];portConstraint=eastwest;" parent="A2BCTbo7lUN5HEoxAGUj-55" vertex="1">
          <mxGeometry y="60" width="160" height="26" as="geometry"/>
        </mxCell>
        <mxCell id="A2BCTbo7lUN5HEoxAGUj-59" value="CarController" style="swimlane;fontStyle=1;align=center;verticalAlign=top;childLayout=stackLayout;horizontal=1;startSize=26;horizontalStack=0;resizeParent=1;resizeParentMax=0;resizeLast=0;collapsible=1;marginBottom=0;" parent="1" vertex="1">
          <mxGeometry x="547.5" y="-400" width="160" height="190" as="geometry">
            <mxRectangle x="30" y="404" width="110" height="26" as="alternateBounds"/>
          </mxGeometry>
        </mxCell>
        <mxCell id="A2BCTbo7lUN5HEoxAGUj-62" value="- collidingWithWall(&#xa;double, double, double): &#xa;boolean&#xa;-updatePicturePos():void&#xa;-updateFrame():void&#xa;-listenForMethod():void" style="text;strokeColor=none;fillColor=none;align=left;verticalAlign=top;spacingLeft=4;spacingRight=4;overflow=hidden;rotatable=0;points=[[0,0.5],[1,0.5]];portConstraint=eastwest;" parent="A2BCTbo7lUN5HEoxAGUj-59" vertex="1">
          <mxGeometry y="26" width="160" height="130" as="geometry"/>
        </mxCell>
        <mxCell id="A2BCTbo7lUN5HEoxAGUj-60" value="~CarView" style="text;strokeColor=none;fillColor=none;align=left;verticalAlign=top;spacingLeft=4;spacingRight=4;overflow=hidden;rotatable=0;points=[[0,0.5],[1,0.5]];portConstraint=eastwest;" parent="A2BCTbo7lUN5HEoxAGUj-59" vertex="1">
          <mxGeometry y="156" width="160" height="26" as="geometry"/>
        </mxCell>
        <mxCell id="A2BCTbo7lUN5HEoxAGUj-61" value="" style="line;strokeWidth=1;fillColor=none;align=left;verticalAlign=middle;spacingTop=-1;spacingLeft=3;spacingRight=3;rotatable=0;labelPosition=right;points=[];portConstraint=eastwest;" parent="A2BCTbo7lUN5HEoxAGUj-59" vertex="1">
          <mxGeometry y="182" width="160" height="8" as="geometry"/>
        </mxCell>
        <mxCell id="A2BCTbo7lUN5HEoxAGUj-65" style="edgeStyle=orthogonalEdgeStyle;rounded=0;orthogonalLoop=1;jettySize=auto;html=1;endArrow=open;endFill=0;" parent="1" edge="1">
          <mxGeometry relative="1" as="geometry">
            <mxPoint x="707.5" y="-360" as="sourcePoint"/>
            <mxPoint x="777.5" y="-395" as="targetPoint"/>
            <Array as="points">
              <mxPoint x="747.5" y="-360"/>
              <mxPoint x="747.5" y="-395"/>
            </Array>
          </mxGeometry>
        </mxCell>
        <mxCell id="A2BCTbo7lUN5HEoxAGUj-75" value="DrawPanel" style="swimlane;fontStyle=1;align=center;verticalAlign=top;childLayout=stackLayout;horizontal=1;startSize=26;horizontalStack=0;resizeParent=1;resizeParentMax=0;resizeLast=0;collapsible=1;marginBottom=0;" parent="1" vertex="1">
          <mxGeometry x="394.5" y="128" width="160" height="86" as="geometry"/>
        </mxCell>
        <mxCell id="A2BCTbo7lUN5HEoxAGUj-76" value="+ field: type" style="text;strokeColor=none;fillColor=none;align=left;verticalAlign=top;spacingLeft=4;spacingRight=4;overflow=hidden;rotatable=0;points=[[0,0.5],[1,0.5]];portConstraint=eastwest;" parent="A2BCTbo7lUN5HEoxAGUj-75" vertex="1">
          <mxGeometry y="26" width="160" height="26" as="geometry"/>
        </mxCell>
        <mxCell id="A2BCTbo7lUN5HEoxAGUj-77" value="" style="line;strokeWidth=1;fillColor=none;align=left;verticalAlign=middle;spacingTop=-1;spacingLeft=3;spacingRight=3;rotatable=0;labelPosition=right;points=[];portConstraint=eastwest;" parent="A2BCTbo7lUN5HEoxAGUj-75" vertex="1">
          <mxGeometry y="52" width="160" height="8" as="geometry"/>
        </mxCell>
        <mxCell id="A2BCTbo7lUN5HEoxAGUj-78" value="+ method(type): type" style="text;strokeColor=none;fillColor=none;align=left;verticalAlign=top;spacingLeft=4;spacingRight=4;overflow=hidden;rotatable=0;points=[[0,0.5],[1,0.5]];portConstraint=eastwest;" parent="A2BCTbo7lUN5HEoxAGUj-75" vertex="1">
          <mxGeometry y="60" width="160" height="26" as="geometry"/>
        </mxCell>
        <mxCell id="A2BCTbo7lUN5HEoxAGUj-79" style="edgeStyle=orthogonalEdgeStyle;rounded=0;orthogonalLoop=1;jettySize=auto;html=1;exitX=1;exitY=0.5;exitDx=0;exitDy=0;entryX=0.75;entryY=0;entryDx=0;entryDy=0;endArrow=open;endFill=0;" parent="1" source="A2BCTbo7lUN5HEoxAGUj-58" target="A2BCTbo7lUN5HEoxAGUj-75" edge="1">
          <mxGeometry relative="1" as="geometry"/>
        </mxCell>
        <mxCell id="50sDM0IluNqHPnj_dnaF-2" value="TimerListener" style="swimlane;fontStyle=1;align=center;verticalAlign=top;childLayout=stackLayout;horizontal=1;startSize=26;horizontalStack=0;resizeParent=1;resizeParentMax=0;resizeLast=0;collapsible=1;marginBottom=0;" parent="1" vertex="1">
          <mxGeometry x="784.5" y="-350" width="160" height="110" as="geometry"/>
        </mxCell>
        <mxCell id="50sDM0IluNqHPnj_dnaF-3" value="+ field: type" style="text;strokeColor=none;fillColor=none;align=left;verticalAlign=top;spacingLeft=4;spacingRight=4;overflow=hidden;rotatable=0;points=[[0,0.5],[1,0.5]];portConstraint=eastwest;" parent="50sDM0IluNqHPnj_dnaF-2" vertex="1">
          <mxGeometry y="26" width="160" height="26" as="geometry"/>
        </mxCell>
        <mxCell id="50sDM0IluNqHPnj_dnaF-4" value="" style="line;strokeWidth=1;fillColor=none;align=left;verticalAlign=middle;spacingTop=-1;spacingLeft=3;spacingRight=3;rotatable=0;labelPosition=right;points=[];portConstraint=eastwest;" parent="50sDM0IluNqHPnj_dnaF-2" vertex="1">
          <mxGeometry y="52" width="160" height="8" as="geometry"/>
        </mxCell>
        <mxCell id="50sDM0IluNqHPnj_dnaF-5" value="+ actionPerformed(&#xa;ActionEvent): void " style="text;strokeColor=none;fillColor=none;align=left;verticalAlign=top;spacingLeft=4;spacingRight=4;overflow=hidden;rotatable=0;points=[[0,0.5],[1,0.5]];portConstraint=eastwest;" parent="50sDM0IluNqHPnj_dnaF-2" vertex="1">
          <mxGeometry y="60" width="160" height="50" as="geometry"/>
        </mxCell>
        <mxCell id="50sDM0IluNqHPnj_dnaF-12" value="«interface»&lt;br&gt;&lt;b&gt;ICarView&lt;/b&gt;" style="html=1;" parent="1" vertex="1">
          <mxGeometry x="12.5" y="75" width="110" height="50" as="geometry"/>
        </mxCell>
        <mxCell id="50sDM0IluNqHPnj_dnaF-14" style="edgeStyle=orthogonalEdgeStyle;rounded=0;orthogonalLoop=1;jettySize=auto;html=1;exitX=1;exitY=0.5;exitDx=0;exitDy=0;" parent="1" source="A2BCTbo7lUN5HEoxAGUj-60" target="50sDM0IluNqHPnj_dnaF-12" edge="1">
          <mxGeometry relative="1" as="geometry"/>
        </mxCell>
        <mxCell id="50sDM0IluNqHPnj_dnaF-18" value="" style="endArrow=open;startArrow=circlePlus;endFill=0;startFill=0;endSize=8;html=1;exitX=1;exitY=0.5;exitDx=0;exitDy=0;entryX=-0.006;entryY=0.769;entryDx=0;entryDy=0;entryPerimeter=0;" parent="1" source="A2BCTbo7lUN5HEoxAGUj-62" target="50sDM0IluNqHPnj_dnaF-3" edge="1">
          <mxGeometry width="160" relative="1" as="geometry">
            <mxPoint x="27.5" y="90" as="sourcePoint"/>
            <mxPoint x="187.5" y="90" as="targetPoint"/>
          </mxGeometry>
        </mxCell>
        <mxCell id="50sDM0IluNqHPnj_dnaF-19" value="CarWorld&#xa;" style="swimlane;fontStyle=1;align=center;verticalAlign=top;childLayout=stackLayout;horizontal=1;startSize=26;horizontalStack=0;resizeParent=1;resizeParentMax=0;resizeLast=0;collapsible=1;marginBottom=0;" parent="1" vertex="1">
          <mxGeometry x="112.5" y="-900" width="160" height="86" as="geometry">
            <mxRectangle x="110" y="170" width="90" height="26" as="alternateBounds"/>
          </mxGeometry>
        </mxCell>
        <mxCell id="50sDM0IluNqHPnj_dnaF-20" value="+ field: type" style="text;strokeColor=none;fillColor=none;align=left;verticalAlign=top;spacingLeft=4;spacingRight=4;overflow=hidden;rotatable=0;points=[[0,0.5],[1,0.5]];portConstraint=eastwest;" parent="50sDM0IluNqHPnj_dnaF-19" vertex="1">
          <mxGeometry y="26" width="160" height="26" as="geometry"/>
        </mxCell>
        <mxCell id="50sDM0IluNqHPnj_dnaF-21" value="" style="line;strokeWidth=1;fillColor=none;align=left;verticalAlign=middle;spacingTop=-1;spacingLeft=3;spacingRight=3;rotatable=0;labelPosition=right;points=[];portConstraint=eastwest;" parent="50sDM0IluNqHPnj_dnaF-19" vertex="1">
          <mxGeometry y="52" width="160" height="8" as="geometry"/>
        </mxCell>
        <mxCell id="50sDM0IluNqHPnj_dnaF-22" value="+ method(type): type" style="text;strokeColor=none;fillColor=none;align=left;verticalAlign=top;spacingLeft=4;spacingRight=4;overflow=hidden;rotatable=0;points=[[0,0.5],[1,0.5]];portConstraint=eastwest;" parent="50sDM0IluNqHPnj_dnaF-19" vertex="1">
          <mxGeometry y="60" width="160" height="26" as="geometry"/>
        </mxCell>
        <mxCell id="50sDM0IluNqHPnj_dnaF-23" value="«interface»&lt;br&gt;&lt;b&gt;ICarWorld&lt;/b&gt;" style="html=1;" parent="1" vertex="1">
          <mxGeometry x="69.5" y="-771" width="110" height="50" as="geometry"/>
        </mxCell>
        <mxCell id="50sDM0IluNqHPnj_dnaF-24" value="" style="endArrow=block;dashed=1;endFill=0;endSize=12;html=1;exitX=0.494;exitY=1.077;exitDx=0;exitDy=0;entryX=0.5;entryY=0;entryDx=0;entryDy=0;exitPerimeter=0;" parent="1" source="50sDM0IluNqHPnj_dnaF-22" target="50sDM0IluNqHPnj_dnaF-23" edge="1">
          <mxGeometry width="160" relative="1" as="geometry">
            <mxPoint x="-27.5" y="-886" as="sourcePoint"/>
            <mxPoint x="82.5" y="-316" as="targetPoint"/>
          </mxGeometry>
        </mxCell>
        <mxCell id="50sDM0IluNqHPnj_dnaF-25" style="edgeStyle=orthogonalEdgeStyle;rounded=0;orthogonalLoop=1;jettySize=auto;html=1;exitX=0;exitY=0.5;exitDx=0;exitDy=0;entryX=0.5;entryY=1;entryDx=0;entryDy=0;" parent="1" source="A2BCTbo7lUN5HEoxAGUj-62" target="50sDM0IluNqHPnj_dnaF-23" edge="1">
          <mxGeometry relative="1" as="geometry"/>
        </mxCell>
        <mxCell id="50sDM0IluNqHPnj_dnaF-26" style="edgeStyle=orthogonalEdgeStyle;rounded=0;orthogonalLoop=1;jettySize=auto;html=1;exitX=1;exitY=0.5;exitDx=0;exitDy=0;entryX=0;entryY=0.5;entryDx=0;entryDy=0;" parent="1" source="50sDM0IluNqHPnj_dnaF-20" target="A2BCTbo7lUN5HEoxAGUj-5" edge="1">
          <mxGeometry relative="1" as="geometry"/>
        </mxCell>
        <mxCell id="50sDM0IluNqHPnj_dnaF-27" style="edgeStyle=orthogonalEdgeStyle;rounded=0;orthogonalLoop=1;jettySize=auto;html=1;exitX=1;exitY=0.5;exitDx=0;exitDy=0;dashed=1;" parent="1" source="50sDM0IluNqHPnj_dnaF-22" edge="1">
          <mxGeometry relative="1" as="geometry">
            <mxPoint x="272.5" y="-700" as="targetPoint"/>
            <Array as="points">
              <mxPoint x="272.5" y="-790"/>
              <mxPoint x="272.5" y="-790"/>
            </Array>
          </mxGeometry>
        </mxCell>
        <mxCell id="50sDM0IluNqHPnj_dnaF-28" style="edgeStyle=orthogonalEdgeStyle;rounded=0;orthogonalLoop=1;jettySize=auto;html=1;exitX=1;exitY=0.5;exitDx=0;exitDy=0;entryX=0.5;entryY=0;entryDx=0;entryDy=0;dashed=1;" parent="1" source="50sDM0IluNqHPnj_dnaF-22" target="A2BCTbo7lUN5HEoxAGUj-31" edge="1">
          <mxGeometry relative="1" as="geometry">
            <Array as="points">
              <mxPoint x="272.5" y="-740"/>
              <mxPoint x="500.5" y="-740"/>
            </Array>
          </mxGeometry>
        </mxCell>
        <mxCell id="50sDM0IluNqHPnj_dnaF-29" style="edgeStyle=orthogonalEdgeStyle;rounded=0;orthogonalLoop=1;jettySize=auto;html=1;exitX=1;exitY=0.5;exitDx=0;exitDy=0;dashed=1;" parent="1" source="50sDM0IluNqHPnj_dnaF-22" target="A2BCTbo7lUN5HEoxAGUj-27" edge="1">
          <mxGeometry relative="1" as="geometry">
            <Array as="points">
              <mxPoint x="272.5" y="-740"/>
            </Array>
          </mxGeometry>
        </mxCell>
        <mxCell id="6hHU0qecmCUIPTqjAova-2" value="" style="endArrow=block;dashed=1;endFill=0;endSize=12;html=1;entryX=1;entryY=0.5;entryDx=0;entryDy=0;exitX=0;exitY=0.25;exitDx=0;exitDy=0;" edge="1" parent="1" source="A2BCTbo7lUN5HEoxAGUj-55" target="50sDM0IluNqHPnj_dnaF-12">
          <mxGeometry width="160" relative="1" as="geometry">
            <mxPoint x="10.5" y="260" as="sourcePoint"/>
            <mxPoint x="170.5" y="260" as="targetPoint"/>
          </mxGeometry>
        </mxCell>
        <mxCell id="6hHU0qecmCUIPTqjAova-3" value="" style="endArrow=block;dashed=1;endFill=0;endSize=12;html=1;entryX=0.5;entryY=1;entryDx=0;entryDy=0;exitX=0.75;exitY=0;exitDx=0;exitDy=0;" edge="1" parent="1" source="A2BCTbo7lUN5HEoxAGUj-13" target="A2BCTbo7lUN5HEoxAGUj-10">
          <mxGeometry width="160" relative="1" as="geometry">
            <mxPoint x="682.5" y="-980" as="sourcePoint"/>
            <mxPoint x="842.5" y="-980" as="targetPoint"/>
          </mxGeometry>
        </mxCell>
        <mxCell id="6hHU0qecmCUIPTqjAova-4" value="Model" style="text;html=1;strokeColor=none;fillColor=none;align=center;verticalAlign=middle;whiteSpace=wrap;rounded=0;fontStyle=1;fontSize=20;" vertex="1" parent="1">
          <mxGeometry x="62.5" y="-1100" width="130" height="110" as="geometry"/>
        </mxCell>
        <mxCell id="6hHU0qecmCUIPTqjAova-5" value="Controller" style="text;html=1;strokeColor=none;fillColor=none;align=center;verticalAlign=middle;whiteSpace=wrap;rounded=0;fontSize=20;fontStyle=1" vertex="1" parent="1">
          <mxGeometry x="567.5" y="-430" width="40" height="20" as="geometry"/>
        </mxCell>
        <mxCell id="6hHU0qecmCUIPTqjAova-6" value="&lt;b&gt;View&lt;/b&gt;" style="text;html=1;strokeColor=none;fillColor=none;align=center;verticalAlign=middle;whiteSpace=wrap;rounded=0;fontSize=20;" vertex="1" parent="1">
          <mxGeometry x="150.5" y="65" width="40" height="20" as="geometry"/>
        </mxCell>
      </root>
    </mxGraphModel>
  </diagram>
</mxfile>
